<svg width="138" height="53" viewBox="0 0 138 53" fill="none" xmlns="http://www.w3.org/2000/svg">
<path d="M39 0C50.5 1.5 53 14.5 53 23.5C53 24.5172 54.6491 25.1126 55.3668 24.3919C59.1532 20.59 63.9088 19.6392 68.5 20.5C74.1994 21.3767 77.5914 27.2511 78.3406 34.752C78.4653 36.0003 79.4823 37 80.7368 37C81.7387 37 82.6188 36.3479 82.9916 35.4179C87.288 24.6983 96.8094 22.1246 102.5 23C103.403 23.2084 104.229 23.4747 104.981 23.8029C112.955 27.2804 118.439 37 127.139 37H130C130.416 37 130.834 37.005 131.25 37.0016C135.789 36.9649 137.498 40.51 137.874 44.3863C138.258 48.3341 135.568 51.6472 131.62 52.0297C127.414 52.4373 120.891 52.346 111.417 51H7C3.13401 51 0 47.866 0 44C0 40.134 3.13401 37 7 37C12.9843 37 17.2188 30.7865 17.0215 24.8055C17.0072 24.373 17 23.9377 17 23.5C17 8.86445 29.0589 0 39 0Z" fill="#FCFCED"/>
</svg>
