<svg width="28" height="28" viewBox="0 0 28 28" fill="none" xmlns="http://www.w3.org/2000/svg">
<mask id="mask0_29267_12482" style="mask-type:alpha" maskUnits="userSpaceOnUse" x="0" y="0" width="28" height="28">
<path d="M28 14C28 21.732 21.732 28 14 28C6.26801 28 0 21.732 0 14C0 6.26801 6.26801 0 14 0C21.732 0 28 6.26801 28 14Z" fill="#70ACDE"/>
</mask>
<g mask="url(#mask0_29267_12482)">
<circle cx="13.9702" cy="14.0313" r="14" fill="#70ACDE"/>
<circle cx="13.9702" cy="14.0313" r="14" fill="url(#paint0_linear_29267_12482)" fill-opacity="0.2"/>
<path d="M-0.181336 1.34425C3.44795 -1.82619 8.61503 -1.84936 11.3596 1.29245C13.3926 3.61961 13.5261 7.03042 11.9838 9.93122C11.9562 9.98315 11.9642 10.047 12.0029 10.0913C13.3581 11.6426 13.004 14.1693 11.2119 15.7348C9.41989 17.3003 6.86854 17.3117 5.51333 15.7604C5.15817 15.3538 4.64828 15.0687 4.10936 15.1003C1.85573 15.2325 -0.311856 14.4579 -1.78322 12.7736C-4.5278 9.63179 -3.81062 4.51468 -0.181336 1.34425Z" fill="#99E587"/>
<path d="M20.4994 3.78867C22.1165 3.44074 23.6717 4.29354 23.9729 5.69347C24.2741 7.0934 23.2073 8.51033 21.5902 8.85827C21.347 8.9106 21.1052 8.93576 20.8688 8.93599C20.3389 8.9365 19.8029 9.059 19.2998 9.22541C18.5415 9.47628 17.7293 9.31779 17.2317 8.74819C16.5371 7.95301 16.7186 6.65787 17.6371 5.85545C17.6765 5.82106 17.7166 5.78814 17.7573 5.75668C18.0848 5.50369 18.3932 5.2139 18.6542 4.89274C19.0864 4.36095 19.7307 3.95405 20.4994 3.78867Z" fill="#99E587"/>
<path d="M17.8315 15.0408C19.7657 14.6246 21.6757 15.8769 22.0976 17.8378C22.0979 17.8391 22.0986 17.8402 22.0998 17.8408C22.8244 18.2711 23.3593 18.952 23.5396 19.79C23.8172 21.0802 23.1752 22.3768 22.0223 23.121C22.0168 23.1245 22.0174 23.1328 22.0235 23.1355C22.0296 23.1381 22.0333 23.1447 22.0276 23.1481C21.7426 23.3169 15.7528 26.8113 12.4329 24.1076C11.8329 23.6769 11.3961 23.0588 11.2367 22.3179C10.8662 20.5958 12.1338 18.8624 14.068 18.4462C14.072 18.4453 14.076 18.4445 14.0801 18.4436C14.5938 18.3347 15.0277 17.9327 15.1912 17.4336C15.5764 16.2584 16.548 15.3169 17.8315 15.0408Z" fill="#99E587"/>
<path d="M9.06176 9.36706C9.06176 9.97537 8.56863 10.4685 7.96033 10.4685C7.35202 10.4685 6.85889 9.97537 6.85889 9.36706C6.85889 8.75876 7.35202 8.26562 7.96033 8.26562C8.56863 8.26562 9.06176 8.75876 9.06176 9.36706Z" fill="#202020"/>
<path d="M16.429 9.36706C16.429 9.97537 15.9358 10.4685 15.3275 10.4685C14.7192 10.4685 14.2261 9.97537 14.2261 9.36706C14.2261 8.75876 14.7192 8.26562 15.3275 8.26562C15.9358 8.26562 16.429 8.75876 16.429 9.36706Z" fill="#202020"/>
<path d="M13.6491 11.8015C14.0282 11.6163 14.4901 11.759 14.6966 12.1324C14.9031 12.5058 14.7786 12.9729 14.4202 13.1955L14.3847 13.2163C11.8643 14.6105 9.44295 13.8445 8.44344 13.2159L8.39693 13.1861L8.36311 13.1627C8.02208 12.9142 7.93224 12.4392 8.16571 12.082C8.39921 11.7248 8.87045 11.6165 9.23488 11.8292L9.26975 11.8508L9.2992 11.8696C9.93572 12.2683 11.7264 12.8639 13.6127 11.8205L13.6491 11.8015Z" fill="#202020"/>
</g>
<defs>
<linearGradient id="paint0_linear_29267_12482" x1="11.8176" y1="6.5785" x2="22.262" y2="24.8173" gradientUnits="userSpaceOnUse">
<stop stop-color="white"/>
<stop offset="1" stop-color="#2887D7"/>
</linearGradient>
</defs>
</svg>
