<svg width="255" height="31" viewBox="0 0 255 31" fill="none" xmlns="http://www.w3.org/2000/svg">
<path d="M244.62 12.6388C241.339 12.6388 239.762 14.8619 239.762 19.1434V19.9668C239.762 24.3718 241.173 26.4714 244.412 26.4714C247.858 26.4714 249.851 24.0013 249.851 20.9137V17.1262C249.851 15.0266 248.232 12.6388 244.62 12.6388ZM252.384 0C253.754 0 255 0.699868 255 2.18194V28.6946C255 30.1355 253.796 30.7942 252.509 30.7942C251.263 30.7942 250.059 30.1355 250.059 28.6946V27.8712H249.934C248.73 30.0531 246.114 30.8765 243.374 30.8765C237.602 30.8765 234.571 27.1301 234.571 20.0903V19.0199C234.571 11.8566 238.225 8.19256 243.748 8.19256C247.36 8.19256 249.104 9.63347 249.768 10.6215V2.18194C249.768 0.699868 251.055 0 252.384 0Z" fill="#1F1F22"/>
<path d="M220.443 21.2023C217.703 21.2023 216.748 22.3138 216.748 24.0841V24.1664C216.748 25.7308 217.827 26.5542 219.862 26.5542C221.481 26.5542 222.727 26.3072 223.723 25.7308C225.052 24.9486 225.592 24.0018 225.592 22.2727V21.2023H220.443ZM221.523 8.19299C226.879 8.19299 230.741 10.869 230.741 15.4387V28.8185C230.741 30.1771 229.578 30.7946 228.374 30.7946C227.17 30.7946 226.007 30.1771 226.007 28.8185V27.7481H225.966C225.55 28.695 224.678 29.3948 223.516 29.9712C222.436 30.5064 220.858 30.8769 219.447 30.8769C214.506 30.8769 211.682 28.4891 211.682 24.4134V23.7547C211.682 20.0084 213.841 17.2089 220.319 17.2089H225.55V16.6326C225.55 13.8331 224.305 12.6804 221.481 12.6804C219.613 12.6804 217.827 13.1744 216.166 14.1624C215.045 14.8211 213.883 14.4506 213.218 13.3802C212.596 12.351 212.72 11.0748 213.8 10.3749C215.793 9.05753 218.616 8.19299 221.523 8.19299Z" fill="#1F1F22"/>
<path d="M186.611 8.19299C189.435 8.19299 191.884 9.59273 192.715 11.6512C194.334 9.38688 196.369 8.19299 199.815 8.19299C204.05 8.19299 207.704 11.0748 207.704 16.7561V28.6126C207.704 30.0947 206.458 30.7946 205.088 30.7946C203.76 30.7946 202.472 30.0947 202.472 28.6126V17.8265C202.472 13.7508 200.521 12.8039 198.32 12.8039C196.286 12.8039 194.127 13.8743 194.127 17.6618V28.6126C194.127 30.0947 192.881 30.7946 191.511 30.7946C190.182 30.7946 188.895 30.0947 188.895 28.6126V17.7441C188.895 13.9154 187.068 12.8039 184.743 12.8039C182.293 12.8039 180.549 14.3271 180.549 17.4559V28.6126C180.549 30.0947 179.303 30.7946 177.933 30.7946C176.605 30.7946 175.317 30.0947 175.317 28.6126V10.5396C175.317 9.0987 176.521 8.44 177.767 8.44C179.054 8.44 180.258 9.0987 180.258 10.5396V11.6923C181.463 9.46922 183.705 8.19299 186.611 8.19299Z" fill="#1F1F22"/>
<path d="M160.395 8.19299C167.121 8.19299 171.107 11.9393 171.107 19.0203V20.0496C171.107 27.1306 167.121 30.8769 160.395 30.8769C153.668 30.8769 149.682 27.1306 149.682 20.0496V19.0203C149.682 11.9393 153.668 8.19299 160.395 8.19299ZM160.395 12.7215C156.658 12.7215 154.955 14.6565 154.955 19.1027V19.9672C154.955 24.4134 156.658 26.3484 160.395 26.3484C164.132 26.3484 165.834 24.4134 165.834 19.9672V19.1027C165.834 14.6565 164.132 12.7215 160.395 12.7215Z" fill="#1F1F22"/>
<path d="M142.802 1.02922C144.048 1.02922 145.252 1.68791 145.252 3.16999V27.2125C145.252 29.8061 144.38 30.6295 141.722 30.6295C139.688 30.6295 138.899 30.2178 136.781 26.4714L128.934 12.5564C128.103 11.0744 127.439 9.67463 126.941 7.82204V28.6534C126.941 30.1355 125.737 30.7942 124.491 30.7942C123.245 30.7942 122.041 30.1355 122.041 28.6534V4.61089C122.041 2.01726 122.913 1.19389 125.571 1.19389C127.605 1.19389 128.394 1.64674 130.512 5.35192L138.359 19.2669C139.19 20.749 139.854 22.1487 140.352 24.0013V3.16999C140.352 1.68791 141.556 1.02922 142.802 1.02922Z" fill="#1F1F22"/>
<path d="M113.763 0C115.133 0 116.379 0.699868 116.379 2.22311V28.571C116.379 30.0943 115.133 30.7942 113.763 30.7942C112.393 30.7942 111.147 30.0943 111.147 28.571V2.22311C111.147 0.699868 112.393 0 113.763 0Z" fill="#1F1F22"/>
<path d="M95.7734 21.2023C93.033 21.2023 92.078 22.3138 92.078 24.0841V24.1664C92.078 25.7308 93.1575 26.5542 95.1921 26.5542C96.8114 26.5542 98.0571 26.3072 99.0536 25.7308C100.382 24.9486 100.922 24.0018 100.922 22.2727V21.2023H95.7734ZM96.8529 8.19299C102.209 8.19299 106.071 10.869 106.071 15.4387V28.8185C106.071 30.1771 104.908 30.7946 103.704 30.7946C102.5 30.7946 101.337 30.1771 101.337 28.8185V27.7481H101.296C100.881 28.695 100.009 29.3948 98.846 29.9712C97.7664 30.5064 96.1886 30.8769 94.7769 30.8769C89.8358 30.8769 87.0124 28.4891 87.0124 24.4134V23.7547C87.0124 20.0084 89.1715 17.2089 95.6488 17.2089H100.881V16.6326C100.881 13.8331 99.6349 12.6804 96.8114 12.6804C94.9429 12.6804 93.1575 13.1744 91.4967 14.1624C90.3756 14.8211 89.213 14.4506 88.5486 13.3802C87.9258 12.351 88.0504 11.0748 89.1299 10.3749C91.123 9.05753 93.9464 8.19299 96.8529 8.19299Z" fill="#1F1F22"/>
<path d="M66.1983 0C67.5685 0 68.8142 0.699868 68.8142 2.18194V10.9097C70.3089 8.76892 73.257 8.19256 75.0839 8.19256C81.063 8.19256 84.011 11.9389 84.011 18.9787V20.0491C84.011 27.2125 80.3571 30.8765 74.8348 30.8765C71.8037 30.8765 69.7276 29.6414 68.6896 27.9123H68.565V28.6946C68.565 30.1355 67.3609 30.7942 66.0737 30.7942C64.7866 30.7942 63.5825 30.1355 63.5825 28.6946V2.18194C63.5825 0.699868 64.8696 0 66.1983 0ZM74.0459 12.6388C70.5581 12.6388 68.7311 14.9031 68.7311 17.9907V21.8194C68.7311 24.0837 71.0148 26.4714 74.1704 26.4714C77.2015 26.4714 78.8208 24.2483 78.8208 19.9256V19.1023C78.8208 14.8619 77.4921 12.6388 74.0459 12.6388Z" fill="#1F1F22"/>
<path d="M48.6598 8.19299C55.3863 8.19299 59.3724 11.9393 59.3724 19.0203V20.0496C59.3724 27.1306 55.3863 30.8769 48.6598 30.8769C41.9333 30.8769 37.9473 27.1306 37.9473 20.0496V19.0203C37.9473 11.9393 41.9333 8.19299 48.6598 8.19299ZM48.6598 12.7215C44.9229 12.7215 43.2205 14.6565 43.2205 19.1027V19.9672C43.2205 24.4134 44.9229 26.3484 48.6598 26.3484C52.3967 26.3484 54.0991 24.4134 54.0991 19.9672V19.1027C54.0991 14.6565 52.3967 12.7215 48.6598 12.7215Z" fill="#1F1F22"/>
<path d="M31.1224 0C32.4926 0 33.7382 0.699868 33.7382 2.22311V28.571C33.7382 30.0943 32.4926 30.7942 31.1224 30.7942C29.7522 30.7942 28.5065 30.0943 28.5065 28.571V2.22311C28.5065 0.699868 29.7522 0 31.1224 0Z" fill="#1F1F22"/>
<path d="M13.3284 0.823373C17.2314 0.823373 19.9718 1.72908 21.9233 3.04648C23.169 3.91102 23.252 5.31076 22.4631 6.42231C21.6742 7.53386 20.4286 7.82204 19.3905 7.16335C17.8127 6.1753 15.8612 5.59894 13.3284 5.59894C7.76451 5.59894 5.35627 7.90438 5.35627 15.4794V16.344C5.35627 23.919 7.63995 26.2244 13.5775 26.2244C15.6121 26.2244 17.0238 25.9774 18.5601 25.3599V18.4847H13.9097C12.6225 18.4847 12.0412 17.4555 12.0412 16.2616C12.0412 15.1089 12.6225 14.0797 13.9097 14.0797H20.304C22.9614 14.0797 23.8333 14.9031 23.8333 17.4967V25.6481C23.8333 27.7477 23.2105 28.7769 21.4251 29.5179C19.2244 30.4236 16.2764 31 13.4114 31C4.73345 31 0 27.1713 0 16.7556V15.0677C0 4.65206 4.73345 0.823373 13.3284 0.823373Z" fill="#1F1F22"/>
</svg>
