<svg width="20" height="20" viewBox="0 0 20 20" fill="none" xmlns="http://www.w3.org/2000/svg">
<path d="M10.0015 3.5415C10.0107 3.5415 15.733 3.54195 17.1646 3.92969C17.9537 4.1399 18.5747 4.76418 18.7849 5.55973C19.1665 6.99893 19.1633 9.99984 19.1633 9.99984C19.1633 10.0208 19.1619 13.0059 18.7817 14.4399C18.5714 15.2323 17.9505 15.8565 17.1614 16.07C15.7317 16.4548 9.99829 16.4549 9.99829 16.4549C9.9895 16.4549 4.26377 16.4545 2.83521 16.07C2.04612 15.8598 1.42513 15.2355 1.21493 14.4399C0.83466 13.0059 0.833257 10.0208 0.833252 9.99984C0.833252 9.99984 0.833387 6.99889 1.21818 5.55648C1.42839 4.76416 2.04937 4.13987 2.83846 3.92643C4.26807 3.54162 10.0015 3.5415 10.0015 3.5415ZM8.12573 12.7261L12.9182 9.99984L8.12573 7.2736V12.7261Z" fill="#9FA0A7"/>
</svg>
